<svg width="18" height="17" viewBox="0 0 18 17" fill="none" xmlns="http://www.w3.org/2000/svg">
    <mask id="path-1-inside-1" fill="white">
        <path fill-rule="evenodd" clip-rule="evenodd" d="M2.18279 4.53948H12.0561H12.0561C15.0773 4.53948 17.5 7.14425 17.5 10.2703V10.2703C17.5 13.3964 15.0773 16.0012 12.0561 16.0012C12.0548 16.0012 12.0534 16.0012 12.0521 16.0012H1.00001C0.723867 16.0012 0.50001 15.7773 0.50001 15.5012C0.50001 15.225 0.723867 15.0012 1.00001 15.0012H12.0561C12.0574 15.0012 12.0587 15.0012 12.0599 15.0012C14.4748 14.999 16.5 12.8966 16.5 10.2703V10.2703C16.5 7.64266 14.4727 5.53948 12.0561 5.53948H12.0561H2.14215L5.09693 8.7397C5.28426 8.94258 5.27165 9.25891 5.06876 9.44624C4.86587 9.63357 4.54954 9.62096 4.36221 9.41807L0.632626 5.37869C0.539238 5.27754 0.495541 5.1482 0.50034 5.0207C0.494689 4.88432 0.544583 4.74615 0.649677 4.64301L4.44968 0.91342C4.64676 0.719992 4.96332 0.722952 5.15675 0.920032C5.35018 1.11711 5.34722 1.43368 5.15014 1.62711L2.18279 4.53948Z"/>
    </mask>
    <path d="M2.18279 4.53948L1.48232 3.82579C1.19245 4.11029 1.10345 4.54187 1.25713 4.91784C1.4108 5.29381 1.77662 5.53948 2.18279 5.53948V4.53948ZM12.0521 16.0012L12.0598 15.0012H12.0521V16.0012ZM12.0599 15.0012L12.0525 16.0012L12.0609 16.0012L12.0599 15.0012ZM2.14215 5.53948V4.53948C1.74493 4.53948 1.38537 4.77458 1.22608 5.13846C1.06679 5.50234 1.13797 5.926 1.40743 6.21785L2.14215 5.53948ZM5.09693 8.7397L5.83165 8.06133L5.83165 8.06133L5.09693 8.7397ZM5.06876 9.44624L5.74713 10.181L5.74713 10.181L5.06876 9.44624ZM4.36221 9.41807L5.09693 8.7397L5.09693 8.7397L4.36221 9.41807ZM0.632626 5.37869L-0.102094 6.05706L-0.102093 6.05706L0.632626 5.37869ZM0.50034 5.0207L1.49963 5.05831C1.50062 5.03199 1.50057 5.00563 1.49948 4.97931L0.50034 5.0207ZM0.649677 4.64301L1.35014 5.35669L1.35014 5.35669L0.649677 4.64301ZM4.44968 0.91342L3.74921 0.199731L3.74921 0.199732L4.44968 0.91342ZM5.15675 0.920032L5.87044 0.219568L5.87044 0.219568L5.15675 0.920032ZM5.15014 1.62711L4.44968 0.913419L4.44968 0.913419L5.15014 1.62711ZM12.0561 3.53948H2.18279V5.53948H12.0561V3.53948ZM12.0561 3.53948H12.0561V5.53948H12.0561V3.53948ZM18.5 10.2703C18.5 6.64732 15.6834 3.53948 12.0561 3.53948V5.53948C14.4713 5.53948 16.5 7.64119 16.5 10.2703H18.5ZM18.5 10.2703V10.2703H16.5V10.2703H18.5ZM12.0561 17.0012C15.6834 17.0012 18.5 13.8933 18.5 10.2703H16.5C16.5 12.8995 14.4713 15.0012 12.0561 15.0012V17.0012ZM12.0443 17.0011C12.048 17.0012 12.052 17.0012 12.0561 17.0012V15.0012C12.0576 15.0012 12.0588 15.0012 12.0598 15.0012L12.0443 17.0011ZM12.0521 15.0012H1.00001V17.0012H12.0521V15.0012ZM1.00001 15.0012C1.27615 15.0012 1.50001 15.225 1.50001 15.5012H-0.49999C-0.49999 16.3296 0.171582 17.0012 1.00001 17.0012V15.0012ZM1.50001 15.5012C1.50001 15.7773 1.27615 16.0012 1.00001 16.0012V14.0012C0.171582 14.0012 -0.49999 14.6727 -0.49999 15.5012H1.50001ZM1.00001 16.0012H12.0561V14.0012H1.00001V16.0012ZM12.0561 16.0012C12.0549 16.0012 12.0537 16.0012 12.0525 16.0012L12.0674 14.0012C12.0636 14.0012 12.0598 14.0012 12.0561 14.0012V16.0012ZM15.5 10.2703C15.5 12.3966 13.8714 13.9995 12.059 14.0012L12.0609 16.0012C15.0782 15.9984 17.5 13.3966 17.5 10.2703H15.5ZM15.5 10.2703V10.2703H17.5V10.2703H15.5ZM12.0561 6.53948C13.8697 6.53948 15.5 8.14285 15.5 10.2703H17.5C17.5 7.14246 15.0756 4.53948 12.0561 4.53948V6.53948ZM12.0561 6.53948H12.0561V4.53948H12.0561V6.53948ZM2.14215 6.53948H12.0561V4.53948H2.14215V6.53948ZM5.83165 8.06133L2.87687 4.86111L1.40743 6.21785L4.36221 9.41807L5.83165 8.06133ZM5.74713 10.181C6.35579 9.61898 6.39363 8.66999 5.83165 8.06133L4.36221 9.41807C4.17489 9.21518 4.1875 8.89885 4.39039 8.71152L5.74713 10.181ZM3.62749 10.0964C4.18948 10.7051 5.13847 10.7429 5.74713 10.181L4.39039 8.71152C4.59327 8.5242 4.9096 8.53681 5.09693 8.7397L3.62749 10.0964ZM-0.102093 6.05706L3.62749 10.0964L5.09693 8.7397L1.36735 4.70031L-0.102093 6.05706ZM-0.498953 4.9831C-0.51329 5.36406 -0.382061 5.75383 -0.102094 6.05706L1.36735 4.70032C1.46054 4.80125 1.50437 4.93234 1.49963 5.05831L-0.498953 4.9831ZM-0.0507866 3.92932C-0.366114 4.2388 -0.515667 4.65503 -0.498803 5.0621L1.49948 4.97931C1.50505 5.1136 1.45528 5.2535 1.35014 5.35669L-0.0507866 3.92932ZM3.74921 0.199732L-0.0507868 3.92932L1.35014 5.35669L5.15014 1.62711L3.74921 0.199732ZM5.87044 0.219568C5.29016 -0.37167 4.34045 -0.380551 3.74921 0.199731L5.15014 1.62711C4.95306 1.82054 4.63649 1.81758 4.44306 1.6205L5.87044 0.219568ZM5.8506 2.3408C6.44184 1.76051 6.45072 0.810806 5.87044 0.219568L4.44306 1.6205C4.24964 1.42342 4.2526 1.10685 4.44968 0.913419L5.8506 2.3408ZM2.88325 5.25317L5.8506 2.3408L4.44968 0.913419L1.48232 3.82579L2.88325 5.25317Z" fill="#3B3B3B" mask="url(#path-1-inside-1)"/>
</svg>